<?xml version="1.0" standalone="no"?>
<!DOCTYPE svg PUBLIC "-//W3C//DTD SVG 20010904//EN"
 "http://www.w3.org/TR/2001/REC-SVG-20010904/DTD/svg10.dtd">
<svg version="1.0" xmlns="http://www.w3.org/2000/svg"
 width="700.000000pt" height="700.000000pt" viewBox="0 0 700.000000 700.000000"
 preserveAspectRatio="xMidYMid meet">
<metadata>
Created by potrace 1.14, written by Peter Selinger 2001-2017
</metadata>
<g transform="translate(0.000000,700.000000) scale(0.100000,-0.100000)"
fill="#000000" stroke="none">
<path d="M0 3500 l0 -3500 3500 0 3500 0 0 3500 0 3500 -3500 0 -3500 0 0
-3500z m2332 766 c3 -9 2 -1461 -1 -1522 l-1 -22 -387 1 -388 0 1 771 c1 424
2 774 3 777 2 12 770 7 773 -5z m3114 -756 c0 -421 -2 -770 -4 -776 -2 -9
-109 -11 -390 -10 l-386 1 -1 760 c0 418 1 767 3 776 3 15 42 16 390 15 l387
-1 1 -765z"/>
</g>
</svg>
